# xmcd
#
# Track frame offsets:
#	150
#	13358
#	27601
#	42381
#	54341
#	79248
#	91598
#	101713
#	118078
#	135085
#	152952
#	168241
#
# Disc length: 2414 seconds
#
# Revision: 2
# Processed by: cddbd v1.5.2PL0 Copyright (c) Steve Scherf et al.
# Submitted via: EasyCDDAExtractor 12.0.1.1
#
DISCID=95096c0c
DTITLE=E-76 - Bygderock Med Telehiv
DYEAR=1992
DGENRE=Folk-Rock
TTITLE0=Traktorhandel
TTITLE1=Upp og ned
TTITLE2=Tømmerhoggarliv
TTITLE3=Asfaltcowboy
TTITLE4=Ein gong fri
TTITLE5=Sydenturen
TTITLE6=Fela mi
TTITLE7=Det var du
TTITLE8=Gjekk og traska
TTITLE9=Kvar gong eg ser deg
TTITLE10=Hallo
TTITLE11=Vegvals for to
EXTD=
EXTT0=
EXTT1=
EXTT2=
EXTT3=
EXTT4=
EXTT5=
EXTT6=
EXTT7=
EXTT8=
EXTT9=
EXTT10=
EXTT11=
PLAYORDER=
